<svg width="166" height="9" fill="none" xmlns="http://www.w3.org/2000/svg"><path d="M1.17 8.29H0V1.62h2.93c.673 0 1.203.2 1.59.6.393.4.59.897.59 1.49 0 .587-.197 1.083-.59 1.49-.387.4-.917.6-1.59.6H1.17v2.49zm1.6-3.52c.333 0 .607-.097.82-.29.213-.193.32-.45.32-.77s-.107-.577-.32-.77c-.213-.193-.487-.29-.82-.29h-1.6v2.12h1.6zM10.654 8.29h-4.57V1.62h4.57v1.03h-3.4v1.73h3.33v1.03h-3.33v1.85h3.4v1.03zM18.785 8.29h-1.17V3.34l-2.05 4.95h-.5l-2.04-4.95v4.95h-1.17V1.62h1.65l1.81 4.39 1.82-4.39h1.65v6.67zM25.765 7.44c-.64.647-1.457.97-2.45.97-.993 0-1.81-.323-2.45-.97-.64-.653-.96-1.48-.96-2.48s.32-1.823.96-2.47c.64-.653 1.457-.98 2.45-.98.993 0 1.81.327 2.45.98.64.647.96 1.47.96 2.47 0 1-.32 1.827-.96 2.48zm-2.45-.07c.66 0 1.193-.227 1.6-.68.407-.46.61-1.037.61-1.73 0-.7-.203-1.277-.61-1.73-.407-.453-.94-.68-1.6-.68-.667 0-1.203.227-1.61.68-.4.453-.6 1.03-.6 1.73s.2 1.277.6 1.73c.407.453.943.68 1.61.68zM33.662 8.29h-1.17V5.38h-3.47v2.91h-1.17V1.62h1.17v2.73h3.47V1.62h1.17v6.67zM37.838 8.29h-1.17V2.65h-2.02V1.62h5.21v1.03h-2.02v5.64zM45.618 8.41c-1.147 0-2.04-.5-2.68-1.5l1-.51c.167.287.4.52.7.7.3.18.627.27.98.27.587 0 1.087-.18 1.5-.54.413-.367.667-.84.76-1.42h-3.56V4.38h3.54a2.218 2.218 0 0 0-.79-1.32c-.407-.34-.89-.51-1.45-.51-.347 0-.673.09-.98.27-.3.18-.533.413-.7.7l-1-.51c.627-1 1.52-1.5 2.68-1.5 1 0 1.833.323 2.5.97.667.64 1 1.467 1 2.48s-.333 1.843-1 2.49c-.667.64-1.5.96-2.5.96zM49.453 8.41V7.37c.386 0 .676-.15.87-.45.193-.307.343-.93.45-1.87l.39-3.43h4.53v6.67h-1.17V2.65h-2.31l-.28 2.48c-.08.687-.194 1.253-.34 1.7-.14.447-.324.783-.55 1.01-.22.22-.453.37-.7.45-.24.08-.537.12-.89.12zM61.68 8.29h-4.57V1.62h4.57v1.03h-3.4v1.73h3.33v1.03h-3.33v1.85h3.4v1.03zM68.31 8.29h-1.44l-2.24-2.81-.58.68v2.13h-1.17V1.62h1.17V4.8l2.61-3.18h1.45L65.4 4.77l2.91 3.52zM71.852 8.29h-1.17V2.65h-2.02V1.62h5.21v1.03h-2.02v5.64zM76.033 8.29h-1.17V1.62h2.93c.674 0 1.204.2 1.59.6.394.4.59.897.59 1.49 0 .587-.196 1.083-.59 1.49-.386.4-.916.6-1.59.6h-1.76v2.49zm1.6-3.52c.334 0 .607-.097.82-.29.214-.193.32-.45.32-.77s-.106-.577-.32-.77c-.213-.193-.486-.29-.82-.29h-1.6v2.12h1.6zM86.507 7.44c-.64.647-1.456.97-2.45.97-.993 0-1.81-.323-2.45-.97-.64-.653-.96-1.48-.96-2.48s.32-1.823.96-2.47c.64-.653 1.457-.98 2.45-.98.994 0 1.81.327 2.45.98.64.647.96 1.47.96 2.47 0 1-.32 1.827-.96 2.48zm-2.45-.07c.66 0 1.194-.227 1.6-.68.407-.46.61-1.037.61-1.73 0-.7-.203-1.277-.61-1.73-.406-.453-.94-.68-1.6-.68-.666 0-1.203.227-1.61.68-.4.453-.6 1.03-.6 1.73s.2 1.277.6 1.73c.407.453.944.68 1.61.68zM94.404 8.29h-1.17V5.38h-3.47v2.91h-1.17V1.62h1.17v2.73h3.47V1.62h1.17v6.67zM101.63 8.29h-1.17V5.38h-3.47v2.91h-1.17V1.62h1.17v2.73h3.47V1.62h1.17v6.67zM108.607 7.44c-.64.647-1.457.97-2.45.97-.993 0-1.81-.323-2.45-.97-.64-.653-.96-1.48-.96-2.48s.32-1.823.96-2.47c.64-.653 1.457-.98 2.45-.98.993 0 1.81.327 2.45.98.64.647.96 1.47.96 2.47 0 1-.32 1.827-.96 2.48zm-2.45-.07c.66 0 1.193-.227 1.6-.68.407-.46.61-1.037.61-1.73 0-.7-.203-1.277-.61-1.73-.407-.453-.94-.68-1.6-.68-.667 0-1.203.227-1.61.68-.4.453-.6 1.03-.6 1.73s.2 1.277.6 1.73c.407.453.943.68 1.61.68zM111.823 8.29h-1.13V1.62h1.17v4.63l3.41-4.63h1.2v6.67h-1.17V3.53l-3.48 4.76zm3.51-7.89c-.433.587-1.016.88-1.75.88-.726 0-1.313-.293-1.76-.88l.48-.4c.32.44.747.66 1.28.66.534 0 .957-.22 1.27-.66l.48.4zM123.219 8.29h-1.17V2.65h-2.02V1.62h5.21v1.03h-2.02v5.64zM130.8 8.29h-4.57V1.62h4.57v1.03h-3.4v1.73h3.33v1.03h-3.33v1.85h3.4v1.03zM137.862 8.29h-1.4l-1.87-2.61-1.87 2.61h-1.4l2.5-3.42-2.35-3.25h1.4l1.72 2.45 1.71-2.45h1.41l-2.34 3.24 2.49 3.43zM144.423 8.29h-1.17V5.38h-3.47v2.91h-1.17V1.62h1.17v2.73h3.47V1.62h1.17v6.67zM146.97 8.29h-1.13V1.62h1.17v4.63l3.41-4.63h1.2v6.67h-1.17V3.53l-3.48 4.76zM158.467 8.29h-1.44l-2.24-2.81-.58.68v2.13h-1.17V1.62h1.17V4.8l2.61-3.18h1.45l-2.71 3.15 2.91 3.52zM160.378 8.29h-1.13V1.62h1.17v4.63l3.41-4.63h1.2v6.67h-1.17V3.53l-3.48 4.76z" fill="#000"/></svg>